#!OML:ASF E:/inclinewalkrobotboard/Project1/Captureday1/Session1/subject1.ASF
:FULLY-SPECIFIED
:DEGREES
351
root 0 0 0 -0.8099268459737402 0.8548509578882499 2.107231827932004
lowerback 9.271787363565199 -1.3196043091749017 -4.1674313012879525
upperback 0.2408777469973139 -2.150843660805572 1.5084577224708846
thorax -4.759247806624783 -0.9529728143488214 4.202786635113273
lowerneck -15.963297107817047 -2.9069121751312283 -3.1982252596616894
upperneck 16.303031389601873 -3.481346788157187 1.919768749647353
head 7.745815985528929 -1.74835769046254 0.7609017803291491
rclavicle 1.6801332286231002E-15 1.0581768888990712E-15
rhumerus -32.87475709211147 -26.22490934845283 -79.60135522736455
rradius 21.016713419498387
rwrist 10.957664095226228
rhand -19.478280180394894 24.82732749606722
rfingers 7.125020000000006
rthumb 6.866724290505893 -5.218453763485595
lclavicle 6.647700687193072E-15 2.086242974506173E-15
lhumerus -26.379745547345017 -5.019892637665009 82.7026640407761
lradius 32.124200795387566
lwrist 8.522287040967155
lhand -28.367754987264572 24.82529928284761
lfingers 7.12502000000002
lthumb -1.7682514236239992 54.789751996878834
rfemur -27.94141644646139 5.245278475106845 21.933033261481796
rtibia 30.499435430844514
rfoot -9.12740123768835 -11.221402167987012
rtoes -0.42308941678674983
lfemur 12.273694595364592 -6.372090218739885 -27.476001562526882
ltibia 18.39357651911429
lfoot -14.216564711468873 -1.5556708953849525
ltoes -5.138308606854427
352
root 0 0 0 -1.1671445345747973 0.9639475822948738 1.3787716960737817
lowerback 8.328692074614775 -1.437889415014947 -3.605172877890328
upperback -0.19509169879959642 -2.201592283109056 1.8414758007168062
thorax -4.712864498684121 -0.98869293806398 4.253324140812215
lowerneck -16.930784596090128 -2.883705070167264 -3.154376485266813
upperneck 18.261453276696678 -3.4382963535350326 1.4710275241809914
head 8.55675521488703 -1.7323856187331745 0.5840585532833593
rclavicle 1.997933240212049E-15 9.210627489091209E-16
rhumerus -33.397759328859664 -27.109727639905486 -79.28135325574823
rradius 19.850162157731397
rwrist 10.23954965940126
rhand -19.23828530781217 24.525180584949783
rfingers 7.125020000000009
rthumb 7.098004436309463 -5.493554509403101
lclavicle 6.6560439894489215E-15 2.0650164155873926E-15
lhumerus -26.60307729499788 -4.672402101196806 82.67810141771785
lradius 31.745172805284348
lwrist 8.371080687148092
lhand -28.386322675392314 25.024990165938735
lfingers 7.125020000000022
lthumb -1.7802203272803254 54.99664274878407
rfemur -26.203008419916287 5.501887250786089 22.664691037095842
rtibia 29.668256785328396
rfoot -9.37403565042327 -10.54428269112828
rtoes 0.24854107675572612
lfemur 12.797080611501126 -6.091776899806705 -26.59757137308599
ltibia 21.44937673223007
lfoot -12.671355950099182 -2.811557097476578
ltoes -7.8132454689406075
353
root 0 0 0 -1.8888953791433825 0.7861031778713863 0.6338213048306365
lowerback 7.947210292379706 -1.4902753941705447 -2.7890560738301406
upperback -0.24440319394916418 -2.159115669426722 2.1210455493665386
thorax -4.57562085557374 -0.9813135141424159 4.1003433536069105
lowerneck -17.264677358466752 -2.7500976680982476 -2.9447521334661944
upperneck 19.812148440108626 -3.2272604855473324 0.880929418850757
head 9.042177793883209 -1.6513798939303137 0.35427374233926545
rclavicle 1.7438929288651146E-15 7.42381905840858E-16
rhumerus -33.88417563247189 -27.605178580809323 -79.16041344045541
rradius 18.867728278865307
rwrist 9.669795104444745
rhand -18.994288658106832 24.273671875347556
rfingers 7.125020000000012
rthumb 7.333531754945545 -5.706514398733592
lclavicle 5.66621517234222E-15 1.8889929365701805E-15
lhumerus -27.025383981693956 -4.301868757237729 82.81997178111715
lradius 31.328394678031547
lwrist 8.214117220086795
lhand -28.342101357142496 25.22279912578906
lfingers 7.125020000000026
lthumb -1.7311597946221156 55.204805879817954
rfemur -23.71586642173844 5.7098650818027625 23.819163268784457
rtibia 29.817617388276936
rfoot -9.66476416934265 -9.61992595704498
rtoes 1.4773936783844057
lfemur 12.142404794214919 -5.471590822803716 -25.3768618460501
ltibia 26.884101101998695
lfoot -10.134230281699336 -4.702591933488543
ltoes -9.68421886792742
354
root 0 0 0 -2.738388078443562 0.4254752614734354 -0.21333939871240615
lowerback 9.408027530204379 -1.5454722327197996 -1.8385203044809606
upperback 0.231510764850076 -2.1002233043995604 2.415146057811307
thorax -4.910250432088904 -0.9720462842206696 3.86373532897285
lowerneck -17.39167785632426 -2.7311086175167136 -2.6163119088158258
upperneck 18.751550086271777 -3.073093304184444 0.1373771903377048
head 8.643703896559778 -1.6408152166510162 0.06814431583650854
rclavicle 7.528198208319615E-16 4.879800517450022E-16
rhumerus -34.122026044849434 -27.566046205024428 -79.22552982938807
rradius 18.23550647843353
rwrist 9.589739022965862
rhand -18.744692747054067 24.20538357974414
rfingers 7.125020000000014
rthumb 7.573591103201381 -5.734925660421414
lclavicle 3.5447404739379854E-15 1.507688975635913E-15
lhumerus -27.550762583393553 -3.8871788085554178 83.13713131663526
lradius 30.779877912130182
lwrist 7.992820795688029
lhand -28.253058640274695 25.406834142950878
lfingers 7.12502000000003
lthumb -1.639068200431284 55.401172440737795
rfemur -19.54366887507388 6.09131217345743 26.054797436916278
rtibia 31.035060547125532
rfoot -10.178208997379151 -8.357493492655786
rtoes 3.386623138697174
lfemur 6.940512564161337 -4.016896989788306 -22.761841741619026
ltibia 39.08620295829101
lfoot -2.8825405863126683 -9.211553572205185
ltoes -6.61336344006839
355
root 0 0 0 -3.385484344900429 -0.003240928915478669 -1.343213149134113
lowerback 10.977723150473631 -1.5482968209388868 -0.6832611190635718
upperback 0.5810841537089062 -1.947214868248232 2.6734329564220047
thorax -5.4490649864122185 -0.925106161948654 3.4502854404736722
lowerneck -17.852949310206807 -2.771822334560757 -2.3328115950520885
upperneck 16.02211305997318 -3.0099529110206795 -0.3932638505140853
head 7.810987814151021 -1.6693433736934413 -0.1321811503936583
rclavicle -6.288840466383892E-17 -5.518899563163629E-16
rhumerus -33.8366549421907 -27.258086202152136 -79.24418861785877
rradius 17.928553507820858
rwrist 10.055016091931481
rhand -18.54225896295779 24.46749902775728
rfingers 7.125020000000015
rthumb 7.766077417521127 -5.457155853093575
lclavicle 1.3184273745515867E-15 1.303827620251791E-16
lhumerus -28.043776890458965 -3.418709133346864 83.69653822675892
lradius 29.96932516088426
lwrist 7.671035330122045
lhand -28.168301375551028 25.622975113302598
lfingers 7.125020000000035
lthumb -1.549412220473604 55.630823493080925
rfemur -11.699978806679304 7.11411038662753 31.006572085389593
rtibia 34.210895350302664
rfoot -11.150988413924026 -6.449879905304298
rtoes 6.744047993527496
lfemur -3.8176842400374147 -0.7377440125845678 -19.0049783082375
ltibia 51.7808527103493
lfoot 6.694421287897427 -14.602872869710353
ltoes -1.372076091617096
356
root 0 0 0 -3.868994143119019 -0.9169669090226327 -2.7320225698392666
lowerback 10.657380670087369 -1.1123156922828659 0.7018806721988154
upperback 0.25167803173973446 -1.2027501535815095 2.760574575443793
thorax -5.6482201238988985 -0.5858117071400957 2.6670644629876756
lowerneck -18.374249812182363 -2.6988080480672245 -2.0670059474232
upperneck 17.23752897286454 -3.0797948415924417 -0.2607871243771738
head 8.435436041502825 -1.6322239487699235 -0.1504011305702777
rclavicle -5.316575848256938E-16 -2.2325220898164836E-15
rhumerus -33.42602357909317 -26.50581990067166 -79.42157919183725
rradius 17.690753881055365
rwrist 10.651758560435507
rhand -18.307607399824292 24.9440402627159
rfingers 7.125020000000016
rthumb 7.989525014871247 -4.944579990403923
lclavicle -1.2911784240393395E-15 -1.8092353891471264E-15
lhumerus -28.499406889200863 -2.5353785286875574 84.39228531873889
lradius 28.440807099576332
lwrist 6.967410463198579
lhand -28.134924247632505 25.875392820575044
lfingers 7.125020000000041
lthumb -1.5081812203715703 55.90066625635198
rfemur -7.014504865803725 7.66062817855175 34.03973724876887
rtibia 36.44847950355066
rfoot -12.153852568308933 -5.422846336874343
rtoes 8.980492533834846
lfemur -10.599729631054824 2.60914951824462 -17.600968134130856
ltibia 56.91185769460655
lfoot 7.67517706124168 -15.310881318129432
ltoes -2.682272941029577
357
root 0 0 0 -4.076036816062545 -2.8535293790028424 -5.356365390789858
lowerback 8.776248776435633 0.04655913547121171 3.083368650864755
upperback -0.5311725685470438 0.6361643359358353 2.8763441703164125
thorax -5.386318936220989 0.27063225955796605 1.2283217930060721
lowerneck -18.36958151749839 -2.91935277915656 -1.6855948194431507
upperneck 21.407075690013873 -3.705430729321953 0.25160060427939546
head 9.980967424754443 -1.7843836685706382 -0.15340512474065054
rclavicle -1.1537428743695266E-15 -1.744198233506332E-15
rhumerus -33.3026191240578 -24.654776060203815 -80.20709014894531
rradius 17.978382966076474
rwrist 10.771139537454523
rhand -18.085935297157135 25.416078036109297
rfingers 7.125020000000017
rthumb 8.203122463807976 -4.418310526144218
lclavicle -3.4905299964856408E-15 -1.3666923725607852E-15
lhumerus -29.116946459141257 -1.4544037063549176 84.94540565440678
lradius 26.816684320412183
lwrist 6.2534262370230405
lhand -28.114358048917737 26.115319860934967
lfingers 7.1250200000000445
lthumb -1.4922697557402085 56.14499348442615
rfemur -5.25445956317004 7.809840742062324 34.91998699781994
rtibia 35.83118198469418
rfoot -13.997214732615653 -5.444686485048793
rtoes 9.188705941987878
lfemur -17.654090412966816 3.5663405007058486 -15.240710625877687
ltibia 58.06248649271511
lfoot 5.015723244964047 -12.16946339476886
ltoes -4.614510662017466
